<?xml version="1.0" encoding="utf-8"?>
<!-- Generator: Adobe Illustrator 19.2.1, SVG Export Plug-In . SVG Version: 6.00 Build 0)  -->
<svg version="1.1" id="layer" xmlns="http://www.w3.org/2000/svg" xmlns:xlink="http://www.w3.org/1999/xlink" x="0px" y="0px"
	 viewBox="0 0 652 652" style="enable-background:new 0 0 652 652;" xml:space="preserve">
<style type="text/css">
	.st0{fill:#FFFFFF;}
</style>
<g id="Layer_2">
	<g id="Layer_1-2">
		<rect x="70.3" y="72.3" width="500" height="500"/>
		<path class="st0" d="M359.5,459.4c-9.6-0.8-18.5,4.9-21.7,14c-2.3-9.7-11.1-14-20.7-14c-11.8,0-22.7,7-22.7,17.9v-31.1h-15.5v57
			h15.5v-15.5c0,11.5,10.4,17.4,22.2,17.4c9.4,0.7,18-5,21.1-13.9c3.2,9,12.1,14.7,21.6,13.9c12.5,0.6,23.2-9.1,23.8-21.6
			c0.6-12.5-9.1-23.2-21.6-23.8c-0.7,0-1.4,0-2.2,0L359.5,459.4z M323.7,487.4c-0.4,5.2-2.6,6.1-6.7,6.1c-5.2,0-7-4.2-7-11.1
			c0-5.2,1.3-11.6,7.3-11.6c3.8,0,6,1.1,6,6.3h13.5c-0.3,1.7-0.4,3.4-0.3,5.2c0,1.7,0.1,3.5,0.4,5.2L323.7,487.4z M359.5,493.1
			c-6.3,0-7.1-6.3-7.1-11c0-4.7,0.9-10.9,7.1-10.9s7.1,6.3,7.1,10.9C366.6,486.8,365.6,493.1,359.5,493.1z"/>
		<path class="st0" d="M473.1,460.2c-11.3,0-17.8,6.1-23,15.5v-1.9c0-7-2.5-14.6-13.3-14.6c-4.3-0.2-8.6,1.4-11.7,4.4
			c0,0,0,0.5-0.4,0.8c-0.4,0.3-1.1,1.5-1.4,1.8c-2.1-4.2-6.5-6.8-11.1-6.7c-5.6-0.4-10.9,2.4-13.8,7.1l0,0v-5.2h-15.5v41.4h15.5
			v-22.6c0-4.6,1-8,5.2-8c5.2,0,5.2,3.9,5.2,8V503h15.5v-22.6c0-4.6,1-8,5.2-8c5.2,0,5.2,3.9,5.2,8V503h15.5v-14
			c5.2,10.4,12.5,16.5,23.7,16.5c9.8,0,19.7-2.5,23.1-12.8H482c-1.3,0-4.3,3.3-6.9,3.3c-4.5,0.2-8.3-3.3-8.4-7.8c0-0.2,0-0.5,0-0.7
			h31.1C497.8,466.7,489.4,460.2,473.1,460.2z M466.7,477.1c0.1-4.3,3.6-7.8,8-7.7c0.1,0,0.2,0,0.3,0c3.8-0.4,7.2,2.4,7.6,6.2
			c0.1,0.5,0,1,0,1.5H466.7z"/>
		<path class="st0" d="M273.9,503v-57h-15.5v28.3c-5.2-9.6-10.4-14.9-22.2-14.9c-8.5-0.1-16.3,4.7-20.2,12.3l3.3-10.4h-16.6l-6,25.9
			h-0.3l-5.7-25.9h-15l-5.2,25.9l0,0l-6.4-25.9h-16.6l13.2,41.4h16.4l6.4-25.9l0,0l6.2,25.9H206l7.8-24.6c-0.2,1.2-0.3,2.4-0.3,3.7
			c-0.6,12,8.7,22.2,20.7,22.7c0.9,0,1.9,0,2.8-0.1c8.9,0.3,17.2-4.3,21.5-12v10.4L273.9,503z M236.7,469.4c3.8-0.4,7.2,2.3,7.7,6.1
			c0.1,0.5,0.1,1,0,1.5h-15.9c0.1-4.3,3.6-7.8,8-7.7C236.6,469.4,236.6,469.4,236.7,469.4z M243.8,492.6c-1.4,0-4.3,3.3-6.9,3.3
			c-4.5,0.2-8.3-3.3-8.4-7.8c0-0.2,0-0.5,0-0.7h29.9v5.2H243.8z"/>
		<path class="st0" d="M320.2,276.9c10.4,38.6,17.9,67,20.7,78.2c4.6,16.7,15.5,27.3,34.6,32.9c25.9,7.6,55.3,16.4,55.3,16.4
			l62.6-238.3l-75.1-8.2l-33.2,127.1c-12.7-48.4-24.4-92.2-26.4-99.4c-5.2-18.6-17.5-28.6-35.7-28.6c-19.8,0-34.1-1.1-34.1-1.1l0,0
			L255.3,284l-33.4-126.6l-75,9c0,0,41.4,157,48.8,185.5c4.8,18.2,14.5,30.6,32.9,35.6s58.3,16.9,58.3,16.9L320.2,276.9z"/>
	</g>
</g>
</svg>
